<?xml version="1.0" encoding="iso-8859-1"?>
<!-- Generator: Adobe Illustrator 19.0.0, SVG Export Plug-In . SVG Version: 6.00 Build 0)  -->
<svg version="1.1" id="Capa_1" xmlns="http://www.w3.org/2000/svg" xmlns:xlink="http://www.w3.org/1999/xlink" x="0px" y="0px"
	 viewBox="0 0 512 512" style="enable-background:new 0 0 512 512;" xml:space="preserve">
<polygon style="fill:#F2F2F2;" points="230.588,56.688 111.694,56.638 0.09,56.588 0.11,56.638 26.329,118.639 39.428,149.604 
	26.268,180.64 0,242.59 102.34,242.64 245.61,242.711 245.61,56.698 "/>
<polygon style="fill:#FF633E;" points="230.588,56.638 230.588,118.639 26.329,118.639 0.11,56.638 "/>
<polygon style="fill:#F2F2F2;" points="230.588,118.639 230.588,180.64 26.268,180.64 39.428,149.604 26.329,118.639 "/>
<polygon style="fill:#00C500;" points="230.588,180.64 230.588,242.64 102.34,242.64 0,242.59 26.268,180.64 "/>
<rect x="122.81" y="118.644" style="fill:#DDDDDD;" width="107.778" height="62.001"/>
<rect x="122.81" y="56.633" style="fill:#FF3100;" width="107.778" height="62.001"/>
<rect x="122.81" y="180.635" style="fill:#008E00;" width="107.778" height="62.001"/>
<rect x="215.566" y="27.666" style="fill:#9D7953;" width="30.044" height="456.669"/>
<polygon style="fill:#F2F2F2;" points="281.412,56.688 400.306,56.638 511.91,56.588 511.89,56.638 485.671,118.639 
	472.572,149.604 485.732,180.64 512,242.59 409.66,242.64 266.39,242.711 266.39,56.698 "/>
<polygon style="fill:#FF3100;" points="281.412,56.638 281.412,118.639 485.671,118.639 511.89,56.638 "/>
<polygon style="fill:#DDDDDD;" points="281.412,118.639 281.412,180.64 485.732,180.64 472.572,149.604 485.671,118.639 "/>
<polygon style="fill:#008E00;" points="281.412,180.64 281.412,242.64 409.66,242.64 512,242.59 485.732,180.64 "/>
<rect x="281.412" y="118.644" style="fill:#F2F2F2;" width="107.778" height="62.001"/>
<rect x="281.412" y="56.633" style="fill:#FF633E;" width="107.778" height="62.001"/>
<rect x="281.412" y="180.635" style="fill:#00C500;" width="107.778" height="62.001"/>
<rect x="266.39" y="27.666" style="fill:#9D7953;" width="30.044" height="456.669"/>
<g>
</g>
<g>
</g>
<g>
</g>
<g>
</g>
<g>
</g>
<g>
</g>
<g>
</g>
<g>
</g>
<g>
</g>
<g>
</g>
<g>
</g>
<g>
</g>
<g>
</g>
<g>
</g>
<g>
</g>
</svg>
